<svg xmlns="http://www.w3.org/2000/svg" width="1600" height="900" viewBox="0 0 1600 900"><defs><linearGradient id="s" x1="0" y1="0" x2="0" y2="1"><stop stop-color="#222a30"/><stop offset=".5" stop-color="#0b0f12"/><stop offset="1" stop-color="#171d21"/></linearGradient><linearGradient id="c" x1="0" y1="0" x2="0" y2="1"><stop stop-color="#ffe09b"/><stop offset=".45" stop-color="#d79a2f"/><stop offset="1" stop-color="#7b4d10"/></linearGradient><pattern id="p" x="390" y="330" width="102" height="150" patternUnits="userSpaceOnUse"><rect x="0" y="0" width="82" height="76" rx="12" fill="#070a0c" stroke="#59646b" stroke-width="2"/><rect x="21" y="29" width="40" height="18" rx="3" fill="url(#c)" stroke="#ffb13a"/></pattern></defs><rect width="1600" height="900" fill="#0a1015"/><path d="M330 220H1270L1360 690H240Z" fill="url(#s)" stroke="#89949b" stroke-width="6"/><path d="M370 260H1230L1290 640H310Z" fill="none" stroke="#323c42" stroke-width="4"/><rect x="390" y="330" width="816" height="300" fill="url(#p)"/><text text-anchor="middle" font-family="Segoe UI,Arial" font-size="18" font-weight="700" fill="#ff8a00"><tspan x="436" y="382">1</tspan><tspan x="538" y="382">2</tspan><tspan x="640" y="382">3</tspan><tspan x="742" y="382">4</tspan><tspan x="844" y="382">5</tspan><tspan x="946" y="382">6</tspan><tspan x="1048" y="382">7</tspan><tspan x="1150" y="382">8</tspan><tspan x="436" y="532">9</tspan><tspan x="538" y="532">10</tspan><tspan x="640" y="532">11</tspan><tspan x="742" y="532">12</tspan><tspan x="844" y="532">13</tspan><tspan x="946" y="532">14</tspan><tspan x="1048" y="532">15</tspan><tspan x="1150" y="532">16</tspan></text></svg>