<svg xmlns="http://www.w3.org/2000/svg" width="1600" height="900" viewBox="0 0 1600 900"><defs>
<linearGradient id="s" x1="0" y1="0" x2="0" y2="1"><stop stop-color="#222a30"/><stop offset=".5" stop-color="#0b0f12"/><stop offset="1" stop-color="#171d21"/></linearGradient>
<linearGradient id="c" x1="0" y1="0" x2="0" y2="1"><stop stop-color="#ffe09b"/><stop offset=".45" stop-color="#d79a2f"/><stop offset="1" stop-color="#7b4d10"/></linearGradient>
<g id="p"><rect width="82" height="76" rx="12" fill="#070a0c" stroke="#59646b" stroke-width="2"/><rect x="21" y="29" width="40" height="18" rx="3" fill="url(#c)" stroke="#ffb13a"/></g>
</defs><rect width="1600" height="900" fill="#0a1015"/><path d="M330 220H1270L1360 690H240Z" fill="url(#s)" stroke="#89949b" stroke-width="6"/><path d="M370 260H1230L1290 640H310Z" fill="none" stroke="#323c42" stroke-width="4"/><g transform="translate(390 330)"><use href="#p"/><text x="41" y="46" text-anchor="middle" font-family="Segoe UI,Arial" font-size="18" font-weight="700" fill="#ff8a00">1</text></g><g transform="translate(492 330)"><use href="#p"/><text x="41" y="46" text-anchor="middle" font-family="Segoe UI,Arial" font-size="18" font-weight="700" fill="#ff8a00">2</text></g><g transform="translate(594 330)"><use href="#p"/><text x="41" y="46" text-anchor="middle" font-family="Segoe UI,Arial" font-size="18" font-weight="700" fill="#ff8a00">3</text></g><g transform="translate(696 330)"><use href="#p"/><text x="41" y="46" text-anchor="middle" font-family="Segoe UI,Arial" font-size="18" font-weight="700" fill="#ff8a00">4</text></g><g transform="translate(798 330)"><use href="#p"/><text x="41" y="46" text-anchor="middle" font-family="Segoe UI,Arial" font-size="18" font-weight="700" fill="#ff8a00">5</text></g><g transform="translate(900 330)"><use href="#p"/><text x="41" y="46" text-anchor="middle" font-family="Segoe UI,Arial" font-size="18" font-weight="700" fill="#ff8a00">6</text></g><g transform="translate(1002 330)"><use href="#p"/><text x="41" y="46" text-anchor="middle" font-family="Segoe UI,Arial" font-size="18" font-weight="700" fill="#ff8a00">7</text></g><g transform="translate(1104 330)"><use href="#p"/><text x="41" y="46" text-anchor="middle" font-family="Segoe UI,Arial" font-size="18" font-weight="700" fill="#ff8a00">8</text></g><g transform="translate(390 480)"><use href="#p"/><text x="41" y="46" text-anchor="middle" font-family="Segoe UI,Arial" font-size="18" font-weight="700" fill="#ff8a00">9</text></g><g transform="translate(492 480)"><use href="#p"/><text x="41" y="46" text-anchor="middle" font-family="Segoe UI,Arial" font-size="18" font-weight="700" fill="#ff8a00">10</text></g><g transform="translate(594 480)"><use href="#p"/><text x="41" y="46" text-anchor="middle" font-family="Segoe UI,Arial" font-size="18" font-weight="700" fill="#ff8a00">11</text></g><g transform="translate(696 480)"><use href="#p"/><text x="41" y="46" text-anchor="middle" font-family="Segoe UI,Arial" font-size="18" font-weight="700" fill="#ff8a00">12</text></g><g transform="translate(798 480)"><use href="#p"/><text x="41" y="46" text-anchor="middle" font-family="Segoe UI,Arial" font-size="18" font-weight="700" fill="#ff8a00">13</text></g><g transform="translate(900 480)"><use href="#p"/><text x="41" y="46" text-anchor="middle" font-family="Segoe UI,Arial" font-size="18" font-weight="700" fill="#ff8a00">14</text></g><g transform="translate(1002 480)"><use href="#p"/><text x="41" y="46" text-anchor="middle" font-family="Segoe UI,Arial" font-size="18" font-weight="700" fill="#ff8a00">15</text></g><g transform="translate(1104 480)"><use href="#p"/><text x="41" y="46" text-anchor="middle" font-family="Segoe UI,Arial" font-size="18" font-weight="700" fill="#ff8a00">16</text></g></svg>