<svg xmlns="http://www.w3.org/2000/svg" width="1600" height="900" viewBox="0 0 1600 900"><defs><linearGradient id="s" x1="0" y1="0" x2="0" y2="1"><stop stop-color="#222a30"/><stop offset=".5" stop-color="#0b0f12"/><stop offset="1" stop-color="#171d21"/></linearGradient><linearGradient id="c" x1="0" y1="0" x2="0" y2="1"><stop stop-color="#ffe09b"/><stop offset=".45" stop-color="#d79a2f"/><stop offset="1" stop-color="#7b4d10"/></linearGradient><pattern id="p1" x="212" y="125" width="90" height="86" patternUnits="userSpaceOnUse"><rect x="4" y="5" width="82" height="76" rx="12" fill="#070a0c" stroke="#59646b" stroke-width="2"/><rect x="25" y="34" width="40" height="18" rx="3" fill="url(#c)" stroke="#ffb13a"/></pattern><pattern id="p2" x="508" y="583" width="90" height="86" patternUnits="userSpaceOnUse"><rect x="4" y="5" width="82" height="76" rx="12" fill="#070a0c" stroke="#59646b" stroke-width="2"/><rect x="25" y="34" width="40" height="18" rx="3" fill="url(#c)" stroke="#ffb13a"/></pattern></defs><rect width="1600" height="900" fill="#0a1015"/><rect x="190" y="78" width="1220" height="350" rx="32" fill="url(#s)" stroke="#89949b" stroke-width="6"/><rect x="210" y="98" width="1180" height="310" rx="24" fill="none" stroke="#323c42" stroke-width="4"/><rect x="212" y="125" width="1080" height="258" fill="url(#p1)"/><text text-anchor="middle" font-family="Segoe UI,Arial" font-size="18" font-weight="700" fill="#ff8a00"><tspan x="257" y="177">1</tspan><tspan x="347" y="177">2</tspan><tspan x="437" y="177">3</tspan><tspan x="527" y="177">4</tspan><tspan x="617" y="177">5</tspan><tspan x="707" y="177">6</tspan><tspan x="797" y="177">7</tspan><tspan x="887" y="177">8</tspan><tspan x="977" y="177">9</tspan><tspan x="1067" y="177">10</tspan><tspan x="1157" y="177">11</tspan><tspan x="1247" y="177">12</tspan><tspan x="257" y="263">13</tspan><tspan x="347" y="263">14</tspan><tspan x="437" y="263">15</tspan><tspan x="527" y="263">16</tspan><tspan x="617" y="263">17</tspan><tspan x="707" y="263">18</tspan><tspan x="797" y="263">19</tspan><tspan x="887" y="263">20</tspan><tspan x="977" y="263">21</tspan><tspan x="1067" y="263">22</tspan><tspan x="1157" y="263">23</tspan><tspan x="1247" y="263">24</tspan><tspan x="257" y="349">25</tspan><tspan x="347" y="349">26</tspan><tspan x="437" y="349">27</tspan><tspan x="527" y="349">28</tspan><tspan x="617" y="349">29</tspan><tspan x="707" y="349">30</tspan><tspan x="797" y="349">31</tspan><tspan x="887" y="349">32</tspan><tspan x="977" y="349">33</tspan><tspan x="1067" y="349">34</tspan><tspan x="1157" y="349">35</tspan><tspan x="1247" y="349">36</tspan></text><rect x="465" y="540" width="670" height="330" rx="32" fill="url(#s)" stroke="#89949b" stroke-width="6"/><rect x="485" y="560" width="630" height="290" rx="24" fill="none" stroke="#323c42" stroke-width="4"/><rect x="508" y="583" width="540" height="258" fill="url(#p2)"/><text text-anchor="middle" font-family="Segoe UI,Arial" font-size="18" font-weight="700" fill="#ff8a00"><tspan x="553" y="635">1</tspan><tspan x="643" y="635">2</tspan><tspan x="733" y="635">3</tspan><tspan x="823" y="635">4</tspan><tspan x="913" y="635">5</tspan><tspan x="1003" y="635">6</tspan><tspan x="553" y="721">7</tspan><tspan x="643" y="721">8</tspan><tspan x="733" y="721">9</tspan><tspan x="823" y="721">10</tspan><tspan x="913" y="721">11</tspan><tspan x="1003" y="721">12</tspan><tspan x="553" y="807">13</tspan><tspan x="643" y="807">14</tspan><tspan x="733" y="807">15</tspan><tspan x="823" y="807">16</tspan><tspan x="913" y="807">17</tspan><tspan x="1003" y="807">18</tspan></text></svg>